<svg xmlns="http://www.w3.org/2000/svg" xmlns:xlink="http://www.w3.org/1999/xlink" width="293" height="256" viewBox="0 0 293 256">
  <defs>
    <style>
      .cls-1 {
        fill: url(#radial-gradient);
      }

      .cls-2 {
        filter: url(#Polygon_1);
      }
    </style>
    <radialGradient id="radial-gradient" cx="0.681" cy="0.213" r="0.681" gradientTransform="matrix(-1, 0, 0, 1.031, 1.362, -0.007)" gradientUnits="objectBoundingBox">
      <stop offset="0" stop-color="#ed3d3a"/>
      <stop offset="1" stop-color="#d4af56"/>
    </radialGradient>
    <filter id="Polygon_1" x="0" y="0" width="293" height="256" filterUnits="userSpaceOnUse">
      <feOffset dy="3" input="SourceAlpha"/>
      <feGaussianBlur stdDeviation="3" result="blur"/>
      <feFlood flood-opacity="0.161"/>
      <feComposite operator="in" in2="blur"/>
      <feComposite in="SourceGraphic"/>
    </filter>
  </defs>
  <g class="cls-2" transform="matrix(1, 0, 0, 1, 0, 0)">
    <path id="Polygon_1-2" data-name="Polygon 1" class="cls-1" d="M177.392,0a50,50,0,0,1,43.294,24.988l39.863,69a50,50,0,0,1,0,50.025l-39.863,69A50,50,0,0,1,177.392,238H97.608a50,50,0,0,1-43.294-24.988l-39.863-69a50,50,0,0,1,0-50.025l39.863-69A50,50,0,0,1,97.608,0Z" transform="translate(9 6)"/>
  </g>
</svg>
